# xmcd
#
# Track frame offsets: 
#        150
#        19015
#        35830
#        54965
#        68212
#        82150
#        98757
#        116725
#        132262
#        149037
#        165297
#        194962
#
# Disc length: 4014 seconds
#
# Revision: 1
# Processed by: cddbd v1.5PL3 Copyright (c) Steve Scherf et al.
# Submitted via: ExactAudioCopy v0.90b4
#
DISCID=b10fac0c
DTITLE=Chalee Tennison - Parading In The Rain
DYEAR=2003
DGENRE=Country
TTITLE0=I Am Love
TTITLE1=Parading In The Rain
TTITLE2=Easy Lovin' You
TTITLE3=Lonesome Road
TTITLE4=The Mind Of This Woman
TTITLE5=Me And Mexico
TTITLE6=I Am Pretty
TTITLE7=Cheater's Road
TTITLE8=More To This Than That
TTITLE9=Believe
TTITLE10=Peace
TTITLE11=Data
EXTD=
EXTT0=
EXTT1=
EXTT2=
EXTT3=
EXTT4=
EXTT5=
EXTT6=
EXTT7=
EXTT8=
EXTT9=
EXTT10=
EXTT11=
PLAYORDER=
